<svg xmlns="http://www.w3.org/2000/svg" viewBox="0 0 820 2190" width="820" height="2190" font-family="Inter,Arial,sans-serif"><defs><marker id="ah" markerWidth="9" markerHeight="9" refX="6.5" refY="3" orient="auto"><path d="M0,0 L6.5,3 L0,6 Z" fill="#94a3b8"/></marker></defs>
<g><rect x="40" y="18" width="13" height="13" rx="2" fill="#97C459"/><text x="59" y="29" font-family="Inter,Arial,sans-serif" font-size="12" fill="#475569">AI PMO</text><rect x="130" y="18" width="13" height="13" rx="2" fill="#85B7EB"/><text x="149" y="29" font-family="Inter,Arial,sans-serif" font-size="12" fill="#475569">SAP PS</text><rect x="222" y="18" width="13" height="13" rx="2" fill="#FAC775"/><text x="241" y="29" font-family="Inter,Arial,sans-serif" font-size="12" fill="#475569">Scheduler</text><rect x="330" y="18" width="13" height="13" rx="2" fill="#AFA9EC"/><text x="349" y="29" font-family="Inter,Arial,sans-serif" font-size="12" fill="#475569">Human-in-the-loop</text><rect x="492" y="18" width="13" height="13" rx="2" fill="#CBD5E1"/><text x="511" y="29" font-family="Inter,Arial,sans-serif" font-size="12" fill="#475569">CRM / CPQ · out of scope</text></g>
<g transform="translate(0,46)">
<rect x="30" y="8" width="6" height="198" rx="3" fill="#CBD5E1"/><text transform="rotate(-90 20 107.0)" x="20" y="107.0" text-anchor="middle" font-family="Inter,Arial,sans-serif" font-size="11" font-weight="600" letter-spacing="0.5" fill="#64748b">Commercial origin</text>
<rect x="30" y="272" width="6" height="592" rx="3" fill="#97C459"/><text transform="rotate(-90 20 568.0)" x="20" y="568.0" text-anchor="middle" font-family="Inter,Arial,sans-serif" font-size="11" font-weight="600" letter-spacing="0.5" fill="#64748b">Setup &amp; authoring</text>
<rect x="30" y="888" width="6" height="274" rx="3" fill="#85B7EB"/><text transform="rotate(-90 20 1025.0)" x="20" y="1025.0" text-anchor="middle" font-family="Inter,Arial,sans-serif" font-size="11" font-weight="600" letter-spacing="0.5" fill="#64748b">Execution</text>
<rect x="30" y="1186" width="6" height="450" rx="3" fill="#97C459"/><text transform="rotate(-90 20 1411.0)" x="20" y="1411.0" text-anchor="middle" font-family="Inter,Arial,sans-serif" font-size="11" font-weight="600" letter-spacing="0.5" fill="#64748b">Synthesis</text>
<rect x="30" y="1660" width="6" height="204" rx="3" fill="#AFA9EC"/><text transform="rotate(-90 20 1762.0)" x="20" y="1762.0" text-anchor="middle" font-family="Inter,Arial,sans-serif" font-size="11" font-weight="600" letter-spacing="0.5" fill="#64748b">Decide &amp; act</text>
<rect x="30" y="1888" width="6" height="236" rx="3" fill="#94A3B8"/><text transform="rotate(-90 20 2006.0)" x="20" y="2006.0" text-anchor="middle" font-family="Inter,Arial,sans-serif" font-size="11" font-weight="600" letter-spacing="0.5" fill="#64748b">Govern &amp; close</text>
<rect x="280" y="8" width="260" height="50" rx="6" fill="#F8FAFC" stroke="#CBD5E1" stroke-width="1.5" stroke-dasharray="5 3"/><text x="410" y="30.0" text-anchor="middle" font-family="Inter,Arial,sans-serif" font-size="13" font-weight="600" fill="#64748B">Opportunity</text><text x="410" y="47.0" text-anchor="middle" font-family="Inter,Arial,sans-serif" font-size="11" font-weight="400" fill="#64748b">CRM · qualified pipeline</text>
<rect x="280" y="82" width="260" height="50" rx="6" fill="#F8FAFC" stroke="#CBD5E1" stroke-width="1.5" stroke-dasharray="5 3"/><text x="410" y="104.0" text-anchor="middle" font-family="Inter,Arial,sans-serif" font-size="13" font-weight="600" fill="#64748B">CPQ quote</text><text x="410" y="121.0" text-anchor="middle" font-family="Inter,Arial,sans-serif" font-size="11" font-weight="400" fill="#64748b">priced scope · as-sold margin</text>
<rect x="280" y="156" width="260" height="50" rx="6" fill="#F8FAFC" stroke="#CBD5E1" stroke-width="1.5" stroke-dasharray="5 3"/><text x="410" y="178.0" text-anchor="middle" font-family="Inter,Arial,sans-serif" font-size="13" font-weight="600" fill="#64748B">Win — contract signed</text><text x="410" y="195.0" text-anchor="middle" font-family="Inter,Arial,sans-serif" font-size="11" font-weight="400" fill="#64748b">PO booked</text>
<line x1="100" y1="239.0" x2="720" y2="239.0" stroke="#cbd5e1" stroke-width="1.2" stroke-dasharray="6 4"/>
<text x="410" y="235.0" text-anchor="middle" font-family="Inter,Arial,sans-serif" font-size="11" font-weight="400" fill="#94a3b8">commercial origin — out of integration scope    ·    integration begins at booking</text>
<rect x="270" y="272" width="280" height="46" rx="23.0" fill="#F1F5F9" stroke="#94A3B8" stroke-width="1.5"/><text x="410" y="292.0" text-anchor="middle" font-family="Inter,Arial,sans-serif" font-size="13" font-weight="600" fill="#334155">Project booked</text><text x="410" y="309.0" text-anchor="middle" font-family="Inter,Arial,sans-serif" font-size="11" font-weight="400" fill="#64748b">as-sold baseline frozen</text>
<rect x="210.0" y="342" width="400" height="204" rx="10" fill="#FAFAF9" stroke="#E2E8F0" stroke-width="1.5"/><text x="410" y="362" text-anchor="middle" font-family="Inter,Arial,sans-serif" font-size="11" font-weight="600" fill="#475569">Author the plan — agents &amp; dependencies</text><line x1="405" y1="408" x2="310" y2="432" stroke="#94a3b8" stroke-width="1.3" marker-end="url(#ah)"/><line x1="405" y1="408" x2="500" y2="432" stroke="#94a3b8" stroke-width="1.3" marker-end="url(#ah)"/><line x1="305" y1="468" x2="305" y2="492" stroke="#94a3b8" stroke-width="1.3" marker-end="url(#ah)"/><rect x="326.0" y="372" width="158" height="36" rx="6" fill="#EAF3DE" stroke="#97C459" stroke-width="1.2"/><text x="405" y="387" text-anchor="middle" font-family="Inter,Arial,sans-serif" font-size="11" font-weight="600" fill="#3B6D11">Project charter</text><text x="405" y="401" text-anchor="middle" font-family="Inter,Arial,sans-serif" font-size="9" font-weight="500" fill="#639922">⚙ Charter Drafter</text><rect x="226.0" y="432" width="158" height="36" rx="6" fill="#EAF3DE" stroke="#97C459" stroke-width="1.2"/><text x="305" y="447" text-anchor="middle" font-family="Inter,Arial,sans-serif" font-size="11" font-weight="600" fill="#3B6D11">Stakeholder register</text><text x="305" y="461" text-anchor="middle" font-family="Inter,Arial,sans-serif" font-size="9" font-weight="500" fill="#639922">⚙ Stakeholder Analyst</text><rect x="426.0" y="432" width="158" height="36" rx="6" fill="#EAF3DE" stroke="#97C459" stroke-width="1.2"/><text x="505" y="447" text-anchor="middle" font-family="Inter,Arial,sans-serif" font-size="11" font-weight="600" fill="#3B6D11">Work breakdown (WBS)</text><text x="505" y="461" text-anchor="middle" font-family="Inter,Arial,sans-serif" font-size="9" font-weight="500" fill="#639922">⚙ WBS Builder</text><rect x="226.0" y="492" width="158" height="36" rx="6" fill="#EAF3DE" stroke="#97C459" stroke-width="1.2"/><text x="305" y="507" text-anchor="middle" font-family="Inter,Arial,sans-serif" font-size="11" font-weight="600" fill="#3B6D11">Comms plan</text><text x="305" y="521" text-anchor="middle" font-family="Inter,Arial,sans-serif" font-size="9" font-weight="500" fill="#639922">⚙ Communications Planner</text><text x="505" y="500" text-anchor="middle" font-family="Inter,Arial,sans-serif" font-size="10" font-weight="500" fill="#94a3b8">WBS → approval →</text>
<polygon points="410,570.0 520,598.0 410,626.0 300,598.0" fill="#F1F5F9" stroke="#94A3B8" stroke-width="1.5"/><text x="410" y="602.0" text-anchor="middle" font-family="Inter,Arial,sans-serif" font-size="13" font-weight="600" fill="#334155">WBS approved?</text><line x1="520" y1="598.0" x2="600" y2="598.0" stroke="#94a3b8" stroke-width="1.5" marker-end="url(#ah)"/><text x="560" y="590.0" text-anchor="middle" font-family="Inter,Arial,sans-serif" font-size="11" font-weight="400" fill="#334155">no</text><rect x="600" y="578.0" width="190" height="40" rx="6" fill="#EEEDFE" stroke="#AFA9EC" stroke-width="1.5"/><text x="695" y="602.0" text-anchor="middle" font-family="Inter,Arial,sans-serif" font-size="12" font-weight="600" fill="#534AB7">PM edits · agent revises</text>
<rect x="270" y="650" width="280" height="66" rx="6" fill="#EAF3DE" stroke="#97C459" stroke-width="1.5"/><text x="410" y="669" text-anchor="middle" font-family="Inter,Arial,sans-serif" font-size="13" font-weight="600" fill="#3B6D11">Author cost budget</text><text x="410" y="684" text-anchor="middle" font-family="Inter,Arial,sans-serif" font-size="11" font-weight="400" fill="#64748b">allocate across the approved WBS</text><text x="410" y="700" text-anchor="middle" font-family="Inter,Arial,sans-serif" font-size="10" font-weight="500" fill="#639922">⚙ Budget Builder</text>
<rect x="270" y="740" width="280" height="50" rx="6" fill="#E6F1FB" stroke="#85B7EB" stroke-width="1.5"/><text x="410" y="762.0" text-anchor="middle" font-family="Inter,Arial,sans-serif" font-size="13" font-weight="600" fill="#185FA5">Book WBS → SAP PS</text><text x="410" y="779.0" text-anchor="middle" font-family="Inter,Arial,sans-serif" font-size="11" font-weight="400" fill="#64748b">WBS + plan budget · the one write</text>
<rect x="270" y="814" width="280" height="50" rx="6" fill="#FAEEDA" stroke="#FAC775" stroke-width="1.5"/><text x="410" y="836.0" text-anchor="middle" font-family="Inter,Arial,sans-serif" font-size="13" font-weight="600" fill="#854F0B">Publish WBS → scheduler</text><text x="410" y="853.0" text-anchor="middle" font-family="Inter,Arial,sans-serif" font-size="11" font-weight="400" fill="#64748b">structure only; planner builds the schedule</text>
<rect x="138.0" y="888" width="224" height="120" rx="8" fill="#E6F1FB" stroke="#85B7EB" stroke-width="1.5"/><text x="250" y="908" text-anchor="middle" font-family="Inter,Arial,sans-serif" font-size="13" font-weight="600" fill="#185FA5">SAP PS — ERP</text><text x="250" y="923" text-anchor="middle" font-family="Inter,Arial,sans-serif" font-size="11" font-weight="400" fill="#64748b">system of record · cost &amp; commercial</text><circle cx="156.0" cy="940" r="2.3" fill="#85B7EB"/><text x="164.0" y="944" text-anchor="start" font-family="Inter,Arial,sans-serif" font-size="11" font-weight="400" fill="#475569">Cost actuals &amp; accruals</text><circle cx="156.0" cy="957" r="2.3" fill="#85B7EB"/><text x="164.0" y="961" text-anchor="start" font-family="Inter,Arial,sans-serif" font-size="11" font-weight="400" fill="#475569">Commitments / POs</text><circle cx="156.0" cy="974" r="2.3" fill="#85B7EB"/><text x="164.0" y="978" text-anchor="start" font-family="Inter,Arial,sans-serif" font-size="11" font-weight="400" fill="#475569">Change orders &amp; revenue</text><circle cx="156.0" cy="991" r="2.3" fill="#85B7EB"/><text x="164.0" y="995" text-anchor="start" font-family="Inter,Arial,sans-serif" font-size="11" font-weight="400" fill="#475569">Contingency drawn</text>
<rect x="458.0" y="888" width="224" height="120" rx="8" fill="#FAEEDA" stroke="#FAC775" stroke-width="1.5"/><text x="570" y="908" text-anchor="middle" font-family="Inter,Arial,sans-serif" font-size="13" font-weight="600" fill="#854F0B">Scheduler</text><text x="570" y="923" text-anchor="middle" font-family="Inter,Arial,sans-serif" font-size="11" font-weight="400" fill="#64748b">system of record · time &amp; resources</text><circle cx="476.0" cy="940" r="2.3" fill="#FAC775"/><text x="484.0" y="944" text-anchor="start" font-family="Inter,Arial,sans-serif" font-size="11" font-weight="400" fill="#475569">Task % complete</text><circle cx="476.0" cy="957" r="2.3" fill="#FAC775"/><text x="484.0" y="961" text-anchor="start" font-family="Inter,Arial,sans-serif" font-size="11" font-weight="400" fill="#475569">Forecast &amp; actual dates</text><circle cx="476.0" cy="974" r="2.3" fill="#FAC775"/><text x="484.0" y="978" text-anchor="start" font-family="Inter,Arial,sans-serif" font-size="11" font-weight="400" fill="#475569">Resource assignments</text><circle cx="476.0" cy="991" r="2.3" fill="#FAC775"/><text x="484.0" y="995" text-anchor="start" font-family="Inter,Arial,sans-serif" font-size="11" font-weight="400" fill="#475569">Critical path / float</text>
<polygon points="284.0,1032 550.0,1032 536.0,1082 270.0,1082" fill="#EAF3DE" stroke="#97C459" stroke-width="1.5"/><text x="410" y="1054.0" text-anchor="middle" font-family="Inter,Arial,sans-serif" font-size="13" font-weight="600" fill="#3B6D11">Sync to canonical model</text><text x="410" y="1071.0" text-anchor="middle" font-family="Inter,Arial,sans-serif" font-size="11" font-weight="400" fill="#64748b">provenance-tagged · joined by WBS</text>
<polygon points="410,1106.0 520,1134.0 410,1162.0 300,1134.0" fill="#F1F5F9" stroke="#94A3B8" stroke-width="1.5"/><text x="410" y="1138.0" text-anchor="middle" font-family="Inter,Arial,sans-serif" font-size="13" font-weight="600" fill="#334155">Records mapped?</text><line x1="520" y1="1134.0" x2="600" y2="1134.0" stroke="#94a3b8" stroke-width="1.5" marker-end="url(#ah)"/><text x="560" y="1126.0" text-anchor="middle" font-family="Inter,Arial,sans-serif" font-size="11" font-weight="400" fill="#334155">no</text><rect x="600" y="1114.0" width="190" height="40" rx="6" fill="#EEEDFE" stroke="#AFA9EC" stroke-width="1.5"/><text x="695" y="1138.0" text-anchor="middle" font-family="Inter,Arial,sans-serif" font-size="12" font-weight="600" fill="#534AB7">Exception queue · resolve</text>
<rect x="270" y="1186" width="280" height="66" rx="6" fill="#EAF3DE" stroke="#97C459" stroke-width="1.5"/><text x="410" y="1205" text-anchor="middle" font-family="Inter,Arial,sans-serif" font-size="13" font-weight="600" fill="#3B6D11">Compute earned value</text><text x="410" y="1220" text-anchor="middle" font-family="Inter,Arial,sans-serif" font-size="11" font-weight="400" fill="#64748b">PV·EV·AC → CPI·SPI·EAC·VAC</text><text x="410" y="1236" text-anchor="middle" font-family="Inter,Arial,sans-serif" font-size="10" font-weight="500" fill="#639922">⚙ Variance Analyst</text>
<rect x="270" y="1276" width="280" height="66" rx="6" fill="#EAF3DE" stroke="#97C459" stroke-width="1.5"/><text x="410" y="1295" text-anchor="middle" font-family="Inter,Arial,sans-serif" font-size="13" font-weight="600" fill="#3B6D11">Reconcile margin</text><text x="410" y="1310" text-anchor="middle" font-family="Inter,Arial,sans-serif" font-size="11" font-weight="400" fill="#64748b">as-sold → as-planned → as-built</text><text x="410" y="1326" text-anchor="middle" font-family="Inter,Arial,sans-serif" font-size="10" font-weight="500" fill="#639922">⚙ Variance Analyst · Change Order Reviewer</text>
<rect x="240.0" y="1366" width="340" height="180" rx="10" fill="#FAFAF9" stroke="#E2E8F0" stroke-width="1.5"/><text x="410" y="1386" text-anchor="middle" font-family="Inter,Arial,sans-serif" font-size="11" font-weight="600" fill="#475569">Synthesise schedule, controls, risk &amp; change — 5 agents</text><rect x="246.0" y="1400" width="156" height="38" rx="6" fill="#EAF3DE" stroke="#97C459" stroke-width="1.2"/><text x="324" y="1415" text-anchor="middle" font-family="Inter,Arial,sans-serif" font-size="11" font-weight="600" fill="#3B6D11">Change-order analysis</text><text x="324" y="1429" text-anchor="middle" font-family="Inter,Arial,sans-serif" font-size="9" font-weight="500" fill="#639922">⚙ Change Order Reviewer</text><rect x="418.0" y="1400" width="156" height="38" rx="6" fill="#EAF3DE" stroke="#97C459" stroke-width="1.2"/><text x="496" y="1415" text-anchor="middle" font-family="Inter,Arial,sans-serif" font-size="11" font-weight="600" fill="#3B6D11">Risk register</text><text x="496" y="1429" text-anchor="middle" font-family="Inter,Arial,sans-serif" font-size="9" font-weight="500" fill="#639922">⚙ Risk Analyst</text><rect x="246.0" y="1446" width="156" height="38" rx="6" fill="#EAF3DE" stroke="#97C459" stroke-width="1.2"/><text x="324" y="1461" text-anchor="middle" font-family="Inter,Arial,sans-serif" font-size="11" font-weight="600" fill="#3B6D11">Cross-project patterns</text><text x="324" y="1475" text-anchor="middle" font-family="Inter,Arial,sans-serif" font-size="9" font-weight="500" fill="#639922">⚙ Portfolio Risk Reviewer</text><rect x="418.0" y="1446" width="156" height="38" rx="6" fill="#EAF3DE" stroke="#97C459" stroke-width="1.2"/><text x="496" y="1461" text-anchor="middle" font-family="Inter,Arial,sans-serif" font-size="11" font-weight="600" fill="#3B6D11">Issue log</text><text x="496" y="1475" text-anchor="middle" font-family="Inter,Arial,sans-serif" font-size="9" font-weight="500" fill="#639922">⚙ Issue Logger</text><rect x="246.0" y="1492" width="156" height="38" rx="6" fill="#EAF3DE" stroke="#97C459" stroke-width="1.2"/><text x="324" y="1507" text-anchor="middle" font-family="Inter,Arial,sans-serif" font-size="11" font-weight="600" fill="#3B6D11">Schedule analysis</text><text x="324" y="1521" text-anchor="middle" font-family="Inter,Arial,sans-serif" font-size="9" font-weight="500" fill="#639922">⚙ Schedule Reasoner</text>
<rect x="270" y="1570" width="280" height="66" rx="6" fill="#EAF3DE" stroke="#97C459" stroke-width="1.5"/><text x="410" y="1589" text-anchor="middle" font-family="Inter,Arial,sans-serif" font-size="13" font-weight="600" fill="#3B6D11">Draft narrative + recommendations</text><text x="410" y="1604" text-anchor="middle" font-family="Inter,Arial,sans-serif" font-size="11" font-weight="400" fill="#64748b">plain-language · per role</text><text x="410" y="1620" text-anchor="middle" font-family="Inter,Arial,sans-serif" font-size="10" font-weight="500" fill="#639922">⚙ compiled from the agents above</text>
<polygon points="410,1660.0 520,1688.0 410,1716.0 300,1688.0" fill="#F1F5F9" stroke="#94A3B8" stroke-width="1.5"/><text x="410" y="1692.0" text-anchor="middle" font-family="Inter,Arial,sans-serif" font-size="13" font-weight="600" fill="#334155">Brief reviewed?</text><line x1="520" y1="1688.0" x2="600" y2="1688.0" stroke="#94a3b8" stroke-width="1.5" marker-end="url(#ah)"/><text x="560" y="1680.0" text-anchor="middle" font-family="Inter,Arial,sans-serif" font-size="11" font-weight="400" fill="#334155">no</text><rect x="600" y="1668.0" width="190" height="40" rx="6" fill="#EEEDFE" stroke="#AFA9EC" stroke-width="1.5"/><text x="695" y="1692.0" text-anchor="middle" font-family="Inter,Arial,sans-serif" font-size="12" font-weight="600" fill="#534AB7">PM corrects (tracked)</text>
<rect x="270" y="1740" width="280" height="50" rx="6" fill="#EEEDFE" stroke="#AFA9EC" stroke-width="1.5"/><text x="410" y="1762.0" text-anchor="middle" font-family="Inter,Arial,sans-serif" font-size="13" font-weight="600" fill="#534AB7">Assign actions to roles</text><text x="410" y="1779.0" text-anchor="middle" font-family="Inter,Arial,sans-serif" font-size="11" font-weight="400" fill="#64748b">owners · due dates · tracked</text>
<rect x="270" y="1814" width="280" height="50" rx="6" fill="#EEEDFE" stroke="#AFA9EC" stroke-width="1.5"/><text x="410" y="1836.0" text-anchor="middle" font-family="Inter,Arial,sans-serif" font-size="13" font-weight="600" fill="#534AB7">Broadcast the brief</text><text x="410" y="1853.0" text-anchor="middle" font-family="Inter,Arial,sans-serif" font-size="11" font-weight="400" fill="#64748b">dashboard · pinned brief · alerts</text>
<polygon points="410,1888.0 520,1916.0 410,1944.0 300,1916.0" fill="#F1F5F9" stroke="#94A3B8" stroke-width="1.5"/><text x="410" y="1920.0" text-anchor="middle" font-family="Inter,Arial,sans-serif" font-size="13" font-weight="600" fill="#334155">Project complete?</text>
<rect x="270" y="1968" width="280" height="66" rx="6" fill="#EAF3DE" stroke="#97C459" stroke-width="1.5"/><text x="410" y="1987" text-anchor="middle" font-family="Inter,Arial,sans-serif" font-size="13" font-weight="600" fill="#3B6D11">Lessons learned</text><text x="410" y="2002" text-anchor="middle" font-family="Inter,Arial,sans-serif" font-size="11" font-weight="400" fill="#64748b">what worked · what to change</text><text x="410" y="2018" text-anchor="middle" font-family="Inter,Arial,sans-serif" font-size="10" font-weight="500" fill="#639922">⚙ Lessons-Learned Synthesiser</text>
<rect x="270" y="2058" width="280" height="66" rx="6" fill="#EAF3DE" stroke="#97C459" stroke-width="1.5"/><text x="410" y="2077" text-anchor="middle" font-family="Inter,Arial,sans-serif" font-size="13" font-weight="600" fill="#3B6D11">Closeout report</text><text x="410" y="2092" text-anchor="middle" font-family="Inter,Arial,sans-serif" font-size="11" font-weight="400" fill="#64748b">final report · archive</text><text x="410" y="2108" text-anchor="middle" font-family="Inter,Arial,sans-serif" font-size="10" font-weight="500" fill="#639922">⚙ Closeout Reporter</text>
<line x1="410" y1="58" x2="410" y2="82" stroke="#94a3b8" stroke-width="1.5" marker-end="url(#ah)"/>
<line x1="410" y1="132" x2="410" y2="156" stroke="#94a3b8" stroke-width="1.5" marker-end="url(#ah)"/>
<line x1="410" y1="318" x2="410" y2="342" stroke="#94a3b8" stroke-width="1.5" marker-end="url(#ah)"/>
<line x1="410" y1="546" x2="410" y2="570" stroke="#94a3b8" stroke-width="1.5" marker-end="url(#ah)"/>
<line x1="410" y1="626" x2="410" y2="650" stroke="#94a3b8" stroke-width="1.5" marker-end="url(#ah)"/>
<text x="422" y="642.0" text-anchor="start" font-family="Inter,Arial,sans-serif" font-size="11" font-weight="400" fill="#334155">yes</text>
<line x1="410" y1="716" x2="410" y2="740" stroke="#94a3b8" stroke-width="1.5" marker-end="url(#ah)"/>
<line x1="410" y1="790" x2="410" y2="814" stroke="#94a3b8" stroke-width="1.5" marker-end="url(#ah)"/>
<line x1="410" y1="864" x2="410" y2="876.0" stroke="#94a3b8" stroke-width="1.5"/>
<line x1="250" y1="876.0" x2="570" y2="876.0" stroke="#94a3b8" stroke-width="1.5"/>
<line x1="250" y1="876.0" x2="250" y2="888" stroke="#94a3b8" stroke-width="1.5" marker-end="url(#ah)"/>
<line x1="570" y1="876.0" x2="570" y2="888" stroke="#94a3b8" stroke-width="1.5" marker-end="url(#ah)"/>
<line x1="250" y1="1008" x2="250" y2="1020.0" stroke="#94a3b8" stroke-width="1.5"/>
<line x1="570" y1="1008" x2="570" y2="1020.0" stroke="#94a3b8" stroke-width="1.5"/>
<line x1="250" y1="1020.0" x2="570" y2="1020.0" stroke="#94a3b8" stroke-width="1.5"/>
<line x1="410" y1="1020.0" x2="410" y2="1032" stroke="#94a3b8" stroke-width="1.5" marker-end="url(#ah)"/>
<line x1="410" y1="1082" x2="410" y2="1106" stroke="#94a3b8" stroke-width="1.5" marker-end="url(#ah)"/>
<line x1="410" y1="1162" x2="410" y2="1186" stroke="#94a3b8" stroke-width="1.5" marker-end="url(#ah)"/>
<text x="422" y="1178.0" text-anchor="start" font-family="Inter,Arial,sans-serif" font-size="11" font-weight="400" fill="#334155">yes</text>
<line x1="410" y1="1252" x2="410" y2="1276" stroke="#94a3b8" stroke-width="1.5" marker-end="url(#ah)"/>
<line x1="410" y1="1342" x2="410" y2="1366" stroke="#94a3b8" stroke-width="1.5" marker-end="url(#ah)"/>
<line x1="410" y1="1546" x2="410" y2="1570" stroke="#94a3b8" stroke-width="1.5" marker-end="url(#ah)"/>
<line x1="410" y1="1636" x2="410" y2="1660" stroke="#94a3b8" stroke-width="1.5" marker-end="url(#ah)"/>
<line x1="410" y1="1716" x2="410" y2="1740" stroke="#94a3b8" stroke-width="1.5" marker-end="url(#ah)"/>
<text x="422" y="1732.0" text-anchor="start" font-family="Inter,Arial,sans-serif" font-size="11" font-weight="400" fill="#334155">approve</text>
<line x1="410" y1="1790" x2="410" y2="1814" stroke="#94a3b8" stroke-width="1.5" marker-end="url(#ah)"/>
<line x1="410" y1="1864" x2="410" y2="1888" stroke="#94a3b8" stroke-width="1.5" marker-end="url(#ah)"/>
<line x1="410" y1="1944" x2="410" y2="1968" stroke="#94a3b8" stroke-width="1.5" marker-end="url(#ah)"/>
<text x="422" y="1960.0" text-anchor="start" font-family="Inter,Arial,sans-serif" font-size="11" font-weight="400" fill="#334155">yes</text>
<line x1="410" y1="2034" x2="410" y2="2058" stroke="#94a3b8" stroke-width="1.5" marker-end="url(#ah)"/>
<line x1="410" y1="206" x2="410" y2="272" stroke="#94a3b8" stroke-width="1.5" marker-end="url(#ah)"/>
<polyline points="695,578.0 695,444.0 590,444.0" fill="none" stroke="#94a3b8" stroke-width="1.5" stroke-dasharray="5 3" marker-end="url(#ah)"/>
<polyline points="695,1114.0 695,1057.0 552.0,1057.0" fill="none" stroke="#94a3b8" stroke-width="1.5" stroke-dasharray="5 3" marker-end="url(#ah)"/>
<polyline points="695,1668.0 695,1603.0 552.0,1603.0" fill="none" stroke="#94a3b8" stroke-width="1.5" stroke-dasharray="5 3" marker-end="url(#ah)"/>
<polyline points="300,1916.0 95,1916.0 95,948.0 136,948.0" fill="none" stroke="#94a3b8" stroke-width="1.5" stroke-dasharray="5 3" marker-end="url(#ah)"/>
<text x="99" y="1426.0" text-anchor="start" font-family="Inter,Arial,sans-serif" font-size="11" font-weight="400" fill="#334155">no · next</text>
<text x="99" y="1441.0" text-anchor="start" font-family="Inter,Arial,sans-serif" font-size="11" font-weight="400" fill="#334155">reporting cycle</text>
</g>
</svg>
