<svg xmlns="http://www.w3.org/2000/svg" viewBox="0 0 820 1800" width="820" height="1800" font-family="Inter,Arial,sans-serif"><defs><marker id="ah" markerWidth="9" markerHeight="9" refX="6.5" refY="3" orient="auto"><path d="M0,0 L6.5,3 L0,6 Z" fill="#94a3b8"/></marker></defs>
<g><rect x="40" y="18" width="13" height="13" rx="2" fill="#97C459"/><text x="59" y="29" font-family="Inter,Arial,sans-serif" font-size="12" fill="#475569">AI PMO</text><rect x="130" y="18" width="13" height="13" rx="2" fill="#85B7EB"/><text x="149" y="29" font-family="Inter,Arial,sans-serif" font-size="12" fill="#475569">SAP PS</text><rect x="222" y="18" width="13" height="13" rx="2" fill="#FAC775"/><text x="241" y="29" font-family="Inter,Arial,sans-serif" font-size="12" fill="#475569">Scheduler</text><rect x="330" y="18" width="13" height="13" rx="2" fill="#AFA9EC"/><text x="349" y="29" font-family="Inter,Arial,sans-serif" font-size="12" fill="#475569">Human-in-the-loop</text><rect x="492" y="18" width="13" height="13" rx="2" fill="#CBD5E1"/><text x="511" y="29" font-family="Inter,Arial,sans-serif" font-size="12" fill="#475569">CRM / CPQ · out of scope</text></g>
<g transform="translate(0,46)">
<rect x="30" y="50" width="6" height="182" rx="3" fill="#CBD5E1"/><text transform="rotate(-90 20 141.0)" x="20" y="141.0" text-anchor="middle" font-family="Inter,Arial,sans-serif" font-size="11" font-weight="600" letter-spacing="0.5" fill="#64748b">Commercial origin</text>
<rect x="30" y="266" width="6" height="436" rx="3" fill="#97C459"/><text transform="rotate(-90 20 484.0)" x="20" y="484.0" text-anchor="middle" font-family="Inter,Arial,sans-serif" font-size="11" font-weight="600" letter-spacing="0.5" fill="#64748b">Setup &amp; authoring</text>
<rect x="30" y="716" width="6" height="336" rx="3" fill="#85B7EB"/><text transform="rotate(-90 20 884.0)" x="20" y="884.0" text-anchor="middle" font-family="Inter,Arial,sans-serif" font-size="11" font-weight="600" letter-spacing="0.5" fill="#64748b">Execution</text>
<rect x="30" y="1058" width="6" height="272" rx="3" fill="#97C459"/><text transform="rotate(-90 20 1194.0)" x="20" y="1194.0" text-anchor="middle" font-family="Inter,Arial,sans-serif" font-size="11" font-weight="600" letter-spacing="0.5" fill="#64748b">Synthesis</text>
<rect x="30" y="1354" width="6" height="212" rx="3" fill="#AFA9EC"/><text transform="rotate(-90 20 1460.0)" x="20" y="1460.0" text-anchor="middle" font-family="Inter,Arial,sans-serif" font-size="11" font-weight="600" letter-spacing="0.5" fill="#64748b">Decide &amp; act</text>
<rect x="30" y="1590" width="6" height="134" rx="3" fill="#94A3B8"/><text transform="rotate(-90 20 1657.0)" x="20" y="1657.0" text-anchor="middle" font-family="Inter,Arial,sans-serif" font-size="11" font-weight="600" letter-spacing="0.5" fill="#64748b">Govern &amp; close</text>
<line x1="410" y1="92" x2="410" y2="120" stroke="#94a3b8" stroke-width="1.5" marker-end="url(#ah)"/>
<line x1="410" y1="162" x2="410" y2="190" stroke="#94a3b8" stroke-width="1.5" marker-end="url(#ah)"/>
<line x1="410" y1="232" x2="410" y2="266" stroke="#94a3b8" stroke-width="1.5" marker-end="url(#ah)"/>
<line x1="410" y1="312" x2="410" y2="340" stroke="#94a3b8" stroke-width="1.5" marker-end="url(#ah)"/>
<line x1="410" y1="390" x2="410" y2="414" stroke="#94a3b8" stroke-width="1.5" marker-end="url(#ah)"/>
<line x1="410" y1="464" x2="410" y2="488" stroke="#94a3b8" stroke-width="1.5" marker-end="url(#ah)"/>
<line x1="410" y1="544" x2="410" y2="578" stroke="#94a3b8" stroke-width="1.5" marker-end="url(#ah)"/>
<text x="422" y="562" text-anchor="start" font-family="Inter,Arial,sans-serif" font-size="11" fill="#64748b">yes</text>
<line x1="410" y1="628" x2="410" y2="652" stroke="#94a3b8" stroke-width="1.5" marker-end="url(#ah)"/>
<line x1="410" y1="702" x2="410" y2="716" stroke="#94a3b8" stroke-width="1.5"/>
<line x1="250" y1="716" x2="570" y2="716" stroke="#94a3b8" stroke-width="1.5"/>
<line x1="250" y1="716" x2="250" y2="730" stroke="#94a3b8" stroke-width="1.5" marker-end="url(#ah)"/>
<line x1="570" y1="716" x2="570" y2="730" stroke="#94a3b8" stroke-width="1.5" marker-end="url(#ah)"/>
<line x1="250" y1="850" x2="250" y2="874" stroke="#94a3b8" stroke-width="1.5"/>
<line x1="570" y1="850" x2="570" y2="874" stroke="#94a3b8" stroke-width="1.5"/>
<line x1="250" y1="874" x2="570" y2="874" stroke="#94a3b8" stroke-width="1.5"/>
<line x1="410" y1="874" x2="410" y2="896" stroke="#94a3b8" stroke-width="1.5" marker-end="url(#ah)"/>
<line x1="410" y1="946" x2="410" y2="970" stroke="#94a3b8" stroke-width="1.5" marker-end="url(#ah)"/>
<line x1="410" y1="1026" x2="410" y2="1058" stroke="#94a3b8" stroke-width="1.5" marker-end="url(#ah)"/>
<text x="422" y="1044" text-anchor="start" font-family="Inter,Arial,sans-serif" font-size="11" fill="#64748b">yes</text>
<line x1="410" y1="1108" x2="410" y2="1132" stroke="#94a3b8" stroke-width="1.5" marker-end="url(#ah)"/>
<line x1="410" y1="1182" x2="410" y2="1206" stroke="#94a3b8" stroke-width="1.5" marker-end="url(#ah)"/>
<line x1="410" y1="1256" x2="410" y2="1280" stroke="#94a3b8" stroke-width="1.5" marker-end="url(#ah)"/>
<line x1="410" y1="1330" x2="410" y2="1354" stroke="#94a3b8" stroke-width="1.5" marker-end="url(#ah)"/>
<line x1="410" y1="1410" x2="410" y2="1442" stroke="#94a3b8" stroke-width="1.5" marker-end="url(#ah)"/>
<text x="422" y="1428" text-anchor="start" font-family="Inter,Arial,sans-serif" font-size="11" fill="#64748b">approve</text>
<line x1="410" y1="1492" x2="410" y2="1516" stroke="#94a3b8" stroke-width="1.5" marker-end="url(#ah)"/>
<line x1="410" y1="1566" x2="410" y2="1590" stroke="#94a3b8" stroke-width="1.5" marker-end="url(#ah)"/>
<line x1="410" y1="1646" x2="410" y2="1678" stroke="#94a3b8" stroke-width="1.5" marker-end="url(#ah)"/>
<text x="422" y="1664" text-anchor="start" font-family="Inter,Arial,sans-serif" font-size="11" fill="#64748b">yes</text>
<line x1="520" y1="516" x2="600" y2="516" stroke="#94a3b8" stroke-width="1.5" marker-end="url(#ah)"/>
<text x="560" y="508" text-anchor="middle" font-family="Inter,Arial,sans-serif" font-size="11" fill="#64748b">no</text>
<polyline points="695,496 695,439 552,439" fill="none" stroke="#94a3b8" stroke-width="1.5" marker-end="url(#ah)" stroke-dasharray="5 3"/>
<line x1="520" y1="998" x2="600" y2="998" stroke="#94a3b8" stroke-width="1.5" marker-end="url(#ah)"/>
<text x="560" y="990" text-anchor="middle" font-family="Inter,Arial,sans-serif" font-size="11" fill="#64748b">no</text>
<polyline points="695,978 695,921 552,921" fill="none" stroke="#94a3b8" stroke-width="1.5" marker-end="url(#ah)" stroke-dasharray="5 3"/>
<line x1="520" y1="1382" x2="600" y2="1382" stroke="#94a3b8" stroke-width="1.5" marker-end="url(#ah)"/>
<text x="560" y="1374" text-anchor="middle" font-family="Inter,Arial,sans-serif" font-size="11" fill="#64748b">edit</text>
<polyline points="695,1362 695,1305 552,1305" fill="none" stroke="#94a3b8" stroke-width="1.5" marker-end="url(#ah)" stroke-dasharray="5 3"/>
<polyline points="300,1618 95,1618 95,790 136,790" fill="none" stroke="#94a3b8" stroke-width="1.5" marker-end="url(#ah)" stroke-dasharray="5 3"/>
<text x="99" y="1200" text-anchor="start" font-family="Inter,Arial,sans-serif" font-size="11" fill="#64748b">no · next</text>
<text x="99" y="1215" text-anchor="start" font-family="Inter,Arial,sans-serif" font-size="11" fill="#64748b">reporting cycle</text>
<line x1="100" y1="250" x2="720" y2="250" stroke="#cbd5e1" stroke-width="1.2" stroke-dasharray="6 4"/>
<text x="410" y="244" text-anchor="middle" font-family="Inter,Arial,sans-serif" font-size="11" fill="#94a3b8">commercial origin — out of integration scope    ·    integration begins at booking</text>
<rect x="280" y="50" width="260" height="42" rx="6" fill="#F8FAFC" stroke="#CBD5E1" stroke-width="1.5" stroke-dasharray="5 3"/><text x="410" y="68" text-anchor="middle" font-family="Inter,Arial,sans-serif" font-size="13" font-weight="600" fill="#64748B">Opportunity</text><text x="410" y="85" text-anchor="middle" font-family="Inter,Arial,sans-serif" font-size="11" fill="#64748b">CRM · qualified pipeline</text>
<rect x="280" y="120" width="260" height="42" rx="6" fill="#F8FAFC" stroke="#CBD5E1" stroke-width="1.5" stroke-dasharray="5 3"/><text x="410" y="138" text-anchor="middle" font-family="Inter,Arial,sans-serif" font-size="13" font-weight="600" fill="#64748B">CPQ quote</text><text x="410" y="155" text-anchor="middle" font-family="Inter,Arial,sans-serif" font-size="11" fill="#64748b">priced scope · as-sold margin</text>
<rect x="280" y="190" width="260" height="42" rx="6" fill="#F8FAFC" stroke="#CBD5E1" stroke-width="1.5" stroke-dasharray="5 3"/><text x="410" y="208" text-anchor="middle" font-family="Inter,Arial,sans-serif" font-size="13" font-weight="600" fill="#64748B">Win — contract signed</text><text x="410" y="225" text-anchor="middle" font-family="Inter,Arial,sans-serif" font-size="11" fill="#64748b">PO booked</text>
<rect x="270" y="266" width="280" height="46" rx="23.0" fill="#F1F5F9" stroke="#94A3B8" stroke-width="1.5"/><text x="410" y="286" text-anchor="middle" font-family="Inter,Arial,sans-serif" font-size="13" font-weight="600" fill="#334155">Project booked</text><text x="410" y="303" text-anchor="middle" font-family="Inter,Arial,sans-serif" font-size="11" fill="#64748b">as-sold baseline frozen</text>
<rect x="270" y="340" width="280" height="50" rx="6" fill="#EAF3DE" stroke="#97C459" stroke-width="1.5"/><text x="410" y="362" text-anchor="middle" font-family="Inter,Arial,sans-serif" font-size="13" font-weight="600" fill="#3B6D11">AI drafts charter &amp; plan</text><text x="410" y="379" text-anchor="middle" font-family="Inter,Arial,sans-serif" font-size="11" fill="#64748b">objectives · stakeholders · budget</text>
<rect x="270" y="414" width="280" height="50" rx="6" fill="#EAF3DE" stroke="#97C459" stroke-width="1.5"/><text x="410" y="436" text-anchor="middle" font-family="Inter,Arial,sans-serif" font-size="13" font-weight="600" fill="#3B6D11">AI authors scope-true WBS</text><text x="410" y="453" text-anchor="middle" font-family="Inter,Arial,sans-serif" font-size="11" fill="#64748b">deliverable-based, not a template</text>
<polygon points="410,488.0 520.0,516 410,544.0 300.0,516" fill="#F1F5F9" stroke="#94A3B8" stroke-width="1.5"/><text x="410" y="520" text-anchor="middle" font-family="Inter,Arial,sans-serif" font-size="13" font-weight="600" fill="#334155">WBS approved?</text>
<rect x="600" y="496" width="190" height="40" rx="6" fill="#EEEDFE" stroke="#AFA9EC" stroke-width="1.5"/><text x="695" y="520" text-anchor="middle" font-family="Inter,Arial,sans-serif" font-size="13" font-weight="600" fill="#534AB7">PM edits · agent revises</text>
<rect x="270" y="578" width="280" height="50" rx="6" fill="#E6F1FB" stroke="#85B7EB" stroke-width="1.5"/><text x="410" y="600" text-anchor="middle" font-family="Inter,Arial,sans-serif" font-size="13" font-weight="600" fill="#185FA5">Book WBS → SAP PS</text><text x="410" y="617" text-anchor="middle" font-family="Inter,Arial,sans-serif" font-size="11" fill="#64748b">the one deliberate write</text>
<rect x="270" y="652" width="280" height="50" rx="6" fill="#FAEEDA" stroke="#FAC775" stroke-width="1.5"/><text x="410" y="674" text-anchor="middle" font-family="Inter,Arial,sans-serif" font-size="13" font-weight="600" fill="#854F0B">Publish WBS → scheduler</text><text x="410" y="691" text-anchor="middle" font-family="Inter,Arial,sans-serif" font-size="11" fill="#64748b">structure only; planner builds tasks</text>
<rect x="138.0" y="730" width="224" height="120" rx="8" fill="#E6F1FB" stroke="#85B7EB" stroke-width="1.5"/><text x="250" y="750" text-anchor="middle" font-family="Inter,Arial,sans-serif" font-size="13" font-weight="600" fill="#185FA5">SAP PS — ERP</text><text x="250" y="765" text-anchor="middle" font-family="Inter,Arial,sans-serif" font-size="11" fill="#64748b">system of record · cost &amp; commercial</text><circle cx="156.0" cy="782" r="2.3" fill="#85B7EB"/><text x="164.0" y="786" font-family="Inter,Arial,sans-serif" font-size="11" fill="#475569">Cost actuals &amp; accruals</text><circle cx="156.0" cy="799" r="2.3" fill="#85B7EB"/><text x="164.0" y="803" font-family="Inter,Arial,sans-serif" font-size="11" fill="#475569">Commitments / POs</text><circle cx="156.0" cy="816" r="2.3" fill="#85B7EB"/><text x="164.0" y="820" font-family="Inter,Arial,sans-serif" font-size="11" fill="#475569">Change orders &amp; revenue</text><circle cx="156.0" cy="833" r="2.3" fill="#85B7EB"/><text x="164.0" y="837" font-family="Inter,Arial,sans-serif" font-size="11" fill="#475569">Contingency drawn</text>
<rect x="458.0" y="730" width="224" height="120" rx="8" fill="#FAEEDA" stroke="#FAC775" stroke-width="1.5"/><text x="570" y="750" text-anchor="middle" font-family="Inter,Arial,sans-serif" font-size="13" font-weight="600" fill="#854F0B">Scheduler</text><text x="570" y="765" text-anchor="middle" font-family="Inter,Arial,sans-serif" font-size="11" fill="#64748b">system of record · time &amp; resources</text><circle cx="476.0" cy="782" r="2.3" fill="#FAC775"/><text x="484.0" y="786" font-family="Inter,Arial,sans-serif" font-size="11" fill="#475569">Task % complete</text><circle cx="476.0" cy="799" r="2.3" fill="#FAC775"/><text x="484.0" y="803" font-family="Inter,Arial,sans-serif" font-size="11" fill="#475569">Forecast &amp; actual dates</text><circle cx="476.0" cy="816" r="2.3" fill="#FAC775"/><text x="484.0" y="820" font-family="Inter,Arial,sans-serif" font-size="11" fill="#475569">Resource assignments</text><circle cx="476.0" cy="833" r="2.3" fill="#FAC775"/><text x="484.0" y="837" font-family="Inter,Arial,sans-serif" font-size="11" fill="#475569">Critical path / float</text>
<polygon points="284.0,896 550.0,896 536.0,946 270.0,946" fill="#EAF3DE" stroke="#97C459" stroke-width="1.5"/><text x="410" y="918" text-anchor="middle" font-family="Inter,Arial,sans-serif" font-size="13" font-weight="600" fill="#3B6D11">Sync to canonical model</text><text x="410" y="935" text-anchor="middle" font-family="Inter,Arial,sans-serif" font-size="11" fill="#64748b">provenance-tagged · joined by WBS</text>
<polygon points="410,970.0 520.0,998 410,1026.0 300.0,998" fill="#F1F5F9" stroke="#94A3B8" stroke-width="1.5"/><text x="410" y="1002" text-anchor="middle" font-family="Inter,Arial,sans-serif" font-size="13" font-weight="600" fill="#334155">Records mapped?</text>
<rect x="600" y="978" width="190" height="40" rx="6" fill="#EEEDFE" stroke="#AFA9EC" stroke-width="1.5"/><text x="695" y="1002" text-anchor="middle" font-family="Inter,Arial,sans-serif" font-size="13" font-weight="600" fill="#534AB7">Exception queue · resolve</text>
<rect x="270" y="1058" width="280" height="50" rx="6" fill="#EAF3DE" stroke="#97C459" stroke-width="1.5"/><text x="410" y="1080" text-anchor="middle" font-family="Inter,Arial,sans-serif" font-size="13" font-weight="600" fill="#3B6D11">Compute earned value</text><text x="410" y="1097" text-anchor="middle" font-family="Inter,Arial,sans-serif" font-size="11" fill="#64748b">PV·EV·AC → CPI·SPI·EAC·VAC</text>
<rect x="270" y="1132" width="280" height="50" rx="6" fill="#EAF3DE" stroke="#97C459" stroke-width="1.5"/><text x="410" y="1154" text-anchor="middle" font-family="Inter,Arial,sans-serif" font-size="13" font-weight="600" fill="#3B6D11">Reconcile margin</text><text x="410" y="1171" text-anchor="middle" font-family="Inter,Arial,sans-serif" font-size="11" fill="#64748b">as-sold → as-planned → as-built</text>
<rect x="270" y="1206" width="280" height="50" rx="6" fill="#EAF3DE" stroke="#97C459" stroke-width="1.5"/><text x="410" y="1228" text-anchor="middle" font-family="Inter,Arial,sans-serif" font-size="13" font-weight="600" fill="#3B6D11">Synthesise risk &amp; change</text><text x="410" y="1245" text-anchor="middle" font-family="Inter,Arial,sans-serif" font-size="11" fill="#64748b">cross-project patterns · contingency</text>
<rect x="270" y="1280" width="280" height="50" rx="6" fill="#EAF3DE" stroke="#97C459" stroke-width="1.5"/><text x="410" y="1302" text-anchor="middle" font-family="Inter,Arial,sans-serif" font-size="13" font-weight="600" fill="#3B6D11">Draft narrative + recommendations</text><text x="410" y="1319" text-anchor="middle" font-family="Inter,Arial,sans-serif" font-size="11" fill="#64748b">plain-language · per role</text>
<polygon points="410,1354.0 520.0,1382 410,1410.0 300.0,1382" fill="#F1F5F9" stroke="#94A3B8" stroke-width="1.5"/><text x="410" y="1386" text-anchor="middle" font-family="Inter,Arial,sans-serif" font-size="13" font-weight="600" fill="#334155">Brief reviewed?</text>
<rect x="600" y="1362" width="190" height="40" rx="6" fill="#EEEDFE" stroke="#AFA9EC" stroke-width="1.5"/><text x="695" y="1386" text-anchor="middle" font-family="Inter,Arial,sans-serif" font-size="13" font-weight="600" fill="#534AB7">PM corrects (tracked)</text>
<rect x="270" y="1442" width="280" height="50" rx="6" fill="#EEEDFE" stroke="#AFA9EC" stroke-width="1.5"/><text x="410" y="1464" text-anchor="middle" font-family="Inter,Arial,sans-serif" font-size="13" font-weight="600" fill="#534AB7">Assign actions to roles</text><text x="410" y="1481" text-anchor="middle" font-family="Inter,Arial,sans-serif" font-size="11" fill="#64748b">owners · due dates · tracked</text>
<rect x="270" y="1516" width="280" height="50" rx="6" fill="#EEEDFE" stroke="#AFA9EC" stroke-width="1.5"/><text x="410" y="1538" text-anchor="middle" font-family="Inter,Arial,sans-serif" font-size="13" font-weight="600" fill="#534AB7">Broadcast the brief</text><text x="410" y="1555" text-anchor="middle" font-family="Inter,Arial,sans-serif" font-size="11" fill="#64748b">dashboard · pinned brief · alerts</text>
<polygon points="410,1590.0 520.0,1618 410,1646.0 300.0,1618" fill="#F1F5F9" stroke="#94A3B8" stroke-width="1.5"/><text x="410" y="1622" text-anchor="middle" font-family="Inter,Arial,sans-serif" font-size="13" font-weight="600" fill="#334155">Project complete?</text>
<rect x="270" y="1678" width="280" height="46" rx="23.0" fill="#F1F5F9" stroke="#94A3B8" stroke-width="1.5"/><text x="410" y="1698" text-anchor="middle" font-family="Inter,Arial,sans-serif" font-size="13" font-weight="600" fill="#334155">Closeout</text><text x="410" y="1715" text-anchor="middle" font-family="Inter,Arial,sans-serif" font-size="11" fill="#64748b">lessons learned · final report</text>
</g>
</svg>
